<svg version="1.1" id="Layer_1" xmlns="http://www.w3.org/2000/svg" xmlns:xlink="http://www.w3.org/1999/xlink" x="0px" y="0px"
	 width="100%" viewBox="0 0 672 608" enable-background="new 0 0 672 608" xml:space="preserve">
<path fill="#000000" opacity="1.000000" stroke="none" 
	d="
M163.826248,44.200180 
	C190.434662,81.529823 216.879196,118.535316 243.137100,155.672791 
	C245.656128,159.235550 247.843842,159.837128 251.766205,158.233185 
	C261.646088,154.193039 271.911530,151.274261 282.301147,148.819992 
	C283.909485,148.440063 285.590454,148.246719 287.317841,146.509018 
	C285.024597,139.208817 282.674591,131.617126 280.255005,124.047684 
	C274.676239,106.594795 269.104156,89.139511 263.426483,71.718727 
	C262.437042,68.682816 261.866211,66.285904 265.898285,65.162971 
	C270.021301,64.014702 270.251038,67.174110 271.027039,69.570984 
	C278.769440,93.485962 286.517670,117.399597 294.083099,141.370773 
	C295.202637,144.918045 296.691223,146.086243 300.504242,145.438370 
	C309.860992,143.848572 319.289032,142.708023 328.818329,142.595734 
	C335.738312,142.514206 335.730255,142.397263 335.730103,135.244644 
	C335.729218,99.579590 335.731720,63.914528 335.735168,28.249472 
	C335.735291,26.749609 335.806946,25.248081 335.757355,23.750238 
	C335.659119,20.783642 337.033661,19.606413 340.002350,19.647001 
	C343.166779,19.690269 343.380463,21.657320 343.378784,23.985964 
	C343.369293,37.149410 343.364960,50.312859 343.362335,63.476307 
	C343.357452,88.135529 343.432587,112.795265 343.267944,137.453400 
	C343.243164,141.162048 344.398926,142.480423 348.023743,142.520065 
	C358.701538,142.636810 369.313477,143.718109 379.836700,145.494904 
	C382.959076,146.022110 383.958282,144.488937 384.754486,141.982468 
	C391.005829,122.303040 397.312897,102.641327 403.607819,82.975769 
	C405.180389,78.062958 406.825775,73.172661 408.331940,68.239723 
	C409.145264,65.575974 410.412445,64.309883 413.439819,65.245537 
	C416.763794,66.272858 416.813690,68.190674 415.899567,71.012825 
	C408.459686,93.981964 401.102051,116.977745 393.723969,139.966904 
	C393.018372,142.165512 392.344116,144.374176 391.489197,147.109695 
	C398.769989,149.203827 405.752899,151.124374 412.678558,153.232925 
	C417.932495,154.832489 423.179199,156.500977 428.300812,158.472122 
	C431.085114,159.543701 432.839020,159.248459 434.617798,156.721573 
	C449.097717,136.151901 463.651367,115.633911 478.233643,95.136543 
	C491.077240,77.083138 503.979919,59.071697 516.876099,41.055733 
	C518.382385,38.951454 519.834106,37.008678 522.925537,39.209347 
	C526.079102,41.454235 525.075195,43.428471 523.328979,45.875500 
	C503.781921,73.268082 484.277191,100.690887 464.772491,128.113678 
	C457.433685,138.431717 450.117798,148.766113 442.811890,159.107468 
	C442.062286,160.168472 441.452728,161.328415 440.656311,162.643692 
	C445.400330,166.514725 451.009888,168.356003 456.083588,171.065048 
	C481.646973,184.714340 504.158783,202.156799 523.092651,224.114594 
	C525.753357,227.200256 528.213257,227.927933 532.152710,226.521713 
	C557.250549,217.562836 582.440308,208.862000 607.583374,200.029327 
	C610.430847,199.029022 612.895996,197.997025 614.364990,202.059708 
	C615.856873,206.185516 613.189270,206.912857 610.378967,207.877609 
	C586.908569,215.934891 563.445740,224.014252 539.983704,232.095840 
	C537.812805,232.843597 535.530579,233.378860 533.835510,234.772263 
	C533.545837,236.611542 534.676147,237.502975 535.450012,238.537079 
	C547.671692,254.868546 558.083374,272.263031 566.501282,290.860962 
	C567.711243,293.534210 567.713135,295.666077 566.510437,298.374329 
	C558.423584,316.583862 548.270447,333.546661 536.340576,349.476044 
	C535.262146,350.916077 533.864258,352.204346 533.597595,354.586853 
	C538.777283,358.133911 545.067566,359.337128 550.920349,361.426239 
	C570.683594,368.480591 590.561584,375.212860 610.381165,382.110291 
	C612.797729,382.951294 615.865295,383.282013 614.452576,387.393646 
	C613.076843,391.397644 610.690491,390.567413 607.747314,389.532806 
	C582.603943,380.694672 557.404114,372.016541 532.292725,363.089142 
	C528.466553,361.728851 526.054382,362.110077 523.240234,365.284607 
	C501.298737,390.035706 475.283630,409.426819 445.407837,423.636475 
	C443.767914,424.416473 442.042694,425.118927 440.672668,426.869629 
	C441.623108,429.962128 443.886841,432.431396 445.761322,435.069366 
	C470.949860,470.518097 496.194916,505.926727 521.423462,541.347046 
	C522.196472,542.432312 522.860168,543.606323 523.716614,544.619141 
	C525.820435,547.107056 526.700195,549.240173 523.278076,551.563721 
	C519.708618,553.987305 518.453735,551.154114 516.989807,549.122253 
	C510.951752,540.741760 505.062164,532.254578 499.075653,523.836670 
	C478.028442,494.241455 456.912323,464.694946 435.969391,435.026123 
	C433.291168,431.231995 431.039215,429.851135 426.196442,431.764618 
	C416.294342,435.677185 406.036133,438.738098 395.549866,440.752289 
	C391.463562,441.537170 390.933807,443.149200 392.164368,446.893616 
	C399.754395,469.989014 407.158691,493.145630 414.546692,516.306824 
	C415.279510,518.604126 416.998260,520.971558 415.649139,523.453247 
	C414.715027,525.171570 412.641479,525.609009 410.798218,525.453430 
	C408.450073,525.255249 408.329102,522.990784 407.794739,521.336548 
	C402.063721,503.594482 396.389954,485.833954 390.699921,468.078644 
	C388.514862,461.260284 386.239075,454.469116 384.185150,447.611481 
	C383.323578,444.734924 381.992950,443.555023 378.801361,444.078247 
	C368.280762,445.802795 357.687347,446.981842 347.014801,447.204285 
	C343.276642,447.282227 343.367310,449.802795 343.369141,452.406372 
	C343.380737,468.902344 343.367859,485.398315 343.385132,501.894287 
	C343.415985,531.380127 343.442780,560.865967 343.532990,590.351624 
	C343.542023,593.301575 343.395660,595.759705 339.520355,595.733948 
	C335.504272,595.707275 335.689484,592.952759 335.690643,590.180786 
	C335.709167,545.016357 335.716461,499.851898 335.712769,454.687469 
	C335.712219,448.113220 336.654205,447.310181 329.034027,446.851196 
	C319.079803,446.251617 309.151367,445.035797 299.256042,443.746094 
	C295.708649,443.283722 295.018280,445.202026 294.203278,447.751953 
	C286.498627,471.856689 278.775116,495.955536 270.957703,520.023865 
	C270.290619,522.077698 270.421509,525.002686 267.409790,525.507141 
	C263.696472,526.129150 261.660461,523.142151 262.962036,519.097778 
	C270.360291,496.109314 277.787903,473.130280 285.164154,450.134735 
	C285.967743,447.629395 287.107483,445.178192 287.037933,441.867889 
	C282.517975,440.700745 277.871613,439.649933 273.317413,438.290497 
	C266.301361,436.196136 259.199463,434.260834 252.424164,431.536316 
	C248.303482,429.879303 246.141739,430.805481 243.756348,434.182556 
	C227.994614,456.497070 212.078018,478.702087 196.235703,500.959747 
	C184.740936,517.109375 173.275085,533.279541 161.817139,549.455322 
	C160.149185,551.809998 158.674713,553.687927 155.420654,551.298279 
	C152.172379,548.912903 153.600616,547.029236 155.275543,544.684021 
	C172.318970,520.820801 189.317520,496.925476 206.317520,473.031250 
	C216.264191,459.050720 226.201859,445.063751 236.108261,431.054688 
	C237.044724,429.730377 238.397308,428.577240 238.417572,426.738159 
	C237.692627,424.971191 235.973312,424.560394 234.498276,423.878632 
	C203.799713,409.689697 177.358261,389.794861 155.091537,364.384247 
	C152.615952,361.559143 150.390015,360.898590 146.891190,362.138824 
	C120.990356,371.319946 95.044243,380.373535 69.095322,389.418274 
	C66.749771,390.235870 64.165909,392.220306 62.181732,388.627502 
	C60.107922,384.872314 61.821102,383.360413 65.331146,382.164978 
	C84.881073,375.506500 104.387451,368.719818 123.895699,361.939484 
	C130.959717,359.484344 137.987671,356.925446 144.830246,354.485809 
	C145.487625,352.513580 144.165802,351.692932 143.423660,350.687439 
	C131.414215,334.416199 120.985741,317.223694 112.683311,298.748169 
	C111.324203,295.723755 111.386253,293.253052 112.771286,290.265594 
	C121.634056,271.148956 132.338684,253.156830 145.457352,236.169159 
	C143.042618,233.987808 140.068771,233.418564 137.340530,232.477646 
	C113.566063,224.278122 89.771133,216.137909 65.978600,207.990829 
	C63.048336,206.987442 60.069851,206.275360 61.774529,201.870956 
	C63.385380,197.709015 66.083092,199.214676 68.709381,200.127716 
	C94.354858,209.043365 120.029510,217.878372 145.591248,227.028595 
	C150.057358,228.627319 152.586655,227.912506 155.751083,224.330704 
	C177.180618,200.074768 202.349472,180.661850 231.734528,166.861023 
	C233.940720,165.824890 236.453140,165.163406 238.393204,162.485535 
	C232.332672,153.946152 226.204056,145.288162 220.052124,136.646774 
	C198.504959,106.380348 176.954956,76.115921 155.387192,45.864162 
	C153.757370,43.578110 152.128571,41.644222 155.591339,39.297478 
	C159.012695,36.978798 160.329559,39.180367 161.881653,41.466454 
	C162.442413,42.292408 163.033401,43.097839 163.826248,44.200180 
M369.081909,188.454285 
	C368.253937,188.368637 367.418915,188.325714 366.598969,188.191116 
	C336.490295,183.249863 307.217529,186.254211 278.816742,197.452911 
	C250.498199,208.619156 227.441284,226.641754 209.266724,250.987274 
	C207.532455,253.310394 206.116684,255.561264 202.433929,254.261841 
	C194.742661,251.548065 186.936783,249.157608 179.166565,246.670044 
	C176.753799,245.897614 174.706619,245.100281 175.997330,241.814819 
	C177.140411,238.905182 178.793167,238.115585 181.813232,239.210510 
	C187.444656,241.252182 193.262451,242.791229 198.851913,244.932953 
	C202.210938,246.220062 204.388321,245.688995 206.553543,242.792496 
	C211.949615,235.574005 218.132645,229.037354 224.680252,222.842941 
	C225.845703,221.740341 227.397873,220.814621 227.392929,218.329971 
	C218.927307,212.121231 210.144058,205.846069 201.566681,199.301071 
	C198.443604,196.917999 196.123611,197.295593 193.176071,199.564560 
	C163.167694,222.664795 140.426071,251.591263 123.919273,285.545959 
	C123.236153,286.951141 121.926636,288.343964 123.217674,290.501984 
	C124.651718,290.572601 126.287033,290.722137 127.922440,290.723206 
	C150.248367,290.737854 172.575195,290.629120 194.899445,290.822815 
	C199.081406,290.859131 200.980896,289.270447 202.759995,285.625336 
	C228.688034,232.503311 271.817932,204.138077 330.159821,199.096878 
	C356.712555,196.802536 382.238922,202.697495 406.153015,214.550323 
	C436.307617,229.496216 458.678131,252.384705 473.281921,282.635193 
	C476.193420,288.666107 479.422485,291.108337 486.382477,290.930481 
	C507.528412,290.390015 528.696960,290.750031 549.856506,290.701416 
	C551.941040,290.696625 554.168823,291.270844 556.143860,289.877991 
	C556.143860,289.336487 556.310364,288.775543 556.119019,288.394135 
	C553.060974,282.297668 550.152771,276.115051 546.830566,270.164032 
	C531.365173,242.460541 511.050385,218.910187 486.028717,199.379547 
	C483.076660,197.075333 480.884277,196.747162 477.792969,199.121735 
	C470.002411,205.105988 461.962158,210.764648 454.052399,216.595001 
	C453.030975,217.347900 451.666473,217.931961 451.678253,220.299896 
	C459.529480,227.474060 467.152557,235.586426 473.959564,244.428757 
	C475.401337,246.301559 477.102722,245.710617 478.918152,245.115799 
	C485.087860,243.094315 491.314026,241.240906 497.454773,239.136948 
	C500.541962,238.079239 502.120880,239.136749 503.134888,242.025772 
	C504.181000,245.006119 502.439636,245.848099 500.146667,246.583542 
	C492.378235,249.075211 484.603943,251.554306 476.888947,254.204269 
	C474.098419,255.162766 472.310760,254.572968 470.466400,252.223175 
	C466.048889,246.595093 461.632477,240.916763 456.700775,235.750092 
	C432.850372,210.763214 403.881683,195.063583 369.081909,188.454285 
M171.454773,371.045776 
	C178.560120,377.843567 185.824875,384.450134 193.677368,390.399567 
	C196.191788,392.304657 198.245316,392.366699 200.813736,390.453766 
	C208.830093,384.483185 216.984436,378.697968 225.076721,372.829102 
	C226.133133,372.062958 227.408356,371.431915 227.377670,369.215637 
	C219.474838,361.947723 211.814178,353.869812 205.129364,344.920868 
	C203.599045,342.872253 201.722366,343.394226 199.730453,344.068024 
	C193.892975,346.042603 188.007675,347.878265 182.191895,349.913452 
	C179.515991,350.849823 177.449875,351.183533 176.272354,347.786926 
	C175.060913,344.292572 177.182541,343.310944 179.735199,342.486938 
	C186.866562,340.184875 194.097198,338.151215 201.106247,335.524872 
	C205.028305,334.055206 207.019470,335.233368 209.416977,338.338226 
	C247.535995,387.703583 298.146729,409.024170 359.679718,402.202179 
	C405.400970,397.133209 442.423920,375.129272 469.942963,337.885864 
	C472.061859,335.018250 474.234589,334.290985 477.627441,335.485779 
	C484.849518,338.029144 492.175751,340.282471 499.490234,342.555054 
	C502.168488,343.387238 504.162476,344.293243 502.885437,347.763702 
	C501.663086,351.085510 499.533600,350.790283 496.880463,349.886841 
	C491.205475,347.954407 485.424347,346.318909 479.807709,344.235535 
	C476.591156,343.042419 474.484894,343.708618 472.604370,346.483276 
	C468.658936,352.304626 463.635681,357.198120 458.780823,362.243073 
	C456.286682,364.834900 453.106506,366.855286 451.521820,370.046387 
	C452.018158,371.752136 453.233521,372.424347 454.293976,373.190216 
	C461.992828,378.750305 469.807434,384.155701 477.385132,389.875336 
	C480.598419,392.300751 482.870239,392.150818 486.098480,389.651978 
	C513.697754,368.288330 535.360535,342.028137 551.360657,311.083710 
	C553.285217,307.361603 556.033936,303.869598 556.549988,298.957245 
	C553.908752,298.957245 551.601074,298.960724 549.293457,298.956696 
	C527.630127,298.918671 505.964081,299.049988 484.305481,298.710663 
	C479.390961,298.633636 476.794525,300.072479 474.766296,304.552521 
	C466.487915,322.838043 454.940796,338.868500 439.795502,352.085571 
	C397.744293,388.782928 349.371582,399.025513 296.196350,383.808838 
	C253.593872,371.617645 222.692749,344.463776 203.523361,304.369293 
	C201.454590,300.042328 199.052490,298.194916 194.090073,298.287842 
	C171.607208,298.708649 149.116882,298.724915 126.629646,298.930939 
	C125.217560,298.943848 123.617989,298.444855 122.127182,300.100250 
	C134.234207,326.391724 150.213013,350.102234 171.454773,371.045776 
M371.528015,329.034119 
	C386.042725,314.857361 389.891479,297.874146 384.244019,278.712677 
	C379.092987,261.235382 362.231415,248.942108 343.979523,248.096130 
	C326.901947,247.304581 312.302826,252.211792 301.625153,265.879822 
	C287.386505,284.106171 289.780914,313.022339 306.339417,328.386475 
	C325.271271,345.952881 352.061005,346.422974 371.528015,329.034119 
M285.133545,307.657867 
	C285.466583,298.761688 285.167542,298.411957 276.865997,298.408997 
	C259.221161,298.402710 241.575943,298.350739 223.931778,298.459839 
	C219.218018,298.488983 214.443604,298.149017 209.439880,299.162598 
	C213.198288,308.732452 218.575684,316.898621 224.287582,324.871735 
	C225.507492,326.574554 227.101807,326.976471 229.118179,326.315155 
	C247.608002,320.250977 266.109924,314.223755 285.133545,307.657867 
M269.491089,290.727539 
	C272.650787,290.729675 275.840820,290.456329 278.962799,290.800476 
	C283.299316,291.278534 284.569458,289.269073 285.363892,285.324951 
	C286.226074,281.044220 283.561127,280.540894 280.878082,279.675873 
	C263.951569,274.218445 246.987305,268.875824 230.105545,263.283844 
	C226.933456,262.233124 225.186493,263.125336 223.413605,265.596527 
	C218.553650,272.370758 214.364532,279.533783 210.607391,286.958923 
	C210.107117,287.947632 209.396606,289.017578 210.560654,290.727692 
	C229.641525,290.727692 249.067673,290.727692 269.491089,290.727539 
M467.344086,286.960327 
	C463.800507,279.613403 460.300598,272.255707 455.513916,265.579681 
	C453.709686,263.063324 451.997894,262.259491 448.840790,263.305481 
	C431.784454,268.956482 414.665802,274.422211 397.524139,279.810394 
	C394.147675,280.871704 393.302704,282.440948 393.906464,286.015961 
	C394.493469,289.491730 395.540497,290.855011 399.201233,290.802094 
	C412.019470,290.616730 424.842041,290.731567 437.662964,290.730591 
	C446.654266,290.729919 455.645630,290.747528 464.636780,290.707336 
	C466.589325,290.698608 469.146545,291.060486 467.344086,286.960327 
M423.551910,298.882202 
	C415.253265,298.724670 406.953522,298.608215 398.656586,298.386932 
	C395.827271,298.311493 394.210449,299.303955 394.186157,302.326996 
	C394.165680,304.874725 392.118317,307.750946 396.539764,309.129395 
	C414.293365,314.664490 431.967041,320.456177 449.663025,326.175446 
	C451.348969,326.720337 452.937653,327.011566 454.168793,325.369659 
	C460.135925,317.411591 465.193665,308.956573 468.979004,298.882782 
	C453.688019,298.882782 439.112335,298.882782 423.551910,298.882202 
M432.734894,205.702423 
	C435.153595,207.462250 437.706024,209.068024 439.956696,211.021439 
	C442.682312,213.387024 444.955505,213.334579 447.806763,211.067932 
	C452.224121,207.556244 457.028046,204.535431 461.530426,201.124741 
	C465.699158,197.966782 470.363647,195.412827 474.353149,191.335236 
	C462.694946,183.088486 450.737274,176.373520 438.011322,170.993607 
	C435.589905,169.969940 434.278656,171.190445 433.021606,172.919220 
	C430.089752,176.951355 427.064728,180.917938 424.214478,185.006592 
	C421.711334,188.597275 418.546814,191.796371 416.954376,196.018341 
	C422.233856,199.247879 427.182892,202.275299 432.734894,205.702423 
M248.977417,412.531006 
	C252.718796,407.434540 256.416382,402.305084 260.221283,397.256470 
	C261.952820,394.958893 262.171204,393.168549 259.318726,391.618073 
	C251.558136,387.399750 244.119827,382.671051 237.106766,377.288330 
	C235.594574,376.127686 234.128036,376.118927 232.550034,377.278534 
	C223.836090,383.681763 215.085831,390.035614 206.384171,396.455383 
	C205.942261,396.781403 205.834656,397.560516 205.465424,398.357361 
	C215.268204,405.654602 225.880753,411.148895 236.696793,416.282318 
	C243.861725,419.682892 243.882217,419.639709 248.977417,412.531006 
M255.003586,200.443237 
	C257.389832,198.992569 260.110138,198.040833 262.472229,195.375366 
	C256.719849,187.536133 250.968781,179.642502 245.145691,171.802368 
	C243.675171,169.822510 241.865829,170.863556 240.195816,171.624603 
	C229.267868,176.604721 218.788132,182.416428 208.606628,188.769058 
	C207.401779,189.520828 205.861328,190.131744 205.755783,192.547714 
	C214.787506,199.091156 224.072601,205.788742 233.317474,212.541382 
	C235.118011,213.856522 236.324493,212.857910 237.756424,211.889053 
	C243.270477,208.158203 248.839523,204.508682 255.003586,200.443237 
M438.410889,379.961823 
	C432.450134,383.927826 426.620331,388.111267 420.191193,391.315887 
	C417.256775,392.778534 416.793915,394.478516 418.839050,397.181458 
	C423.561615,403.423065 428.188080,409.741638 432.687469,416.145630 
	C434.496185,418.720001 436.343689,418.898499 439.050690,417.648682 
	C449.646057,412.756744 460.103271,407.628082 469.770111,401.033508 
	C471.100433,400.126007 472.808289,399.559296 473.302399,397.764679 
	C472.925232,396.025665 471.382690,395.484802 470.219269,394.626221 
	C463.385315,389.582825 456.309753,384.839783 449.739288,379.476501 
	C445.773132,376.239014 442.563324,375.901062 438.410889,379.961823 
M407.669922,159.909393 
	C402.660248,158.682465 397.633759,157.519165 392.647675,156.202774 
	C390.000153,155.503784 388.694122,156.379517 387.897034,158.985840 
	C385.852325,165.671600 383.605682,172.296143 381.398163,178.931305 
	C380.553192,181.471024 381.188446,182.827148 383.940399,183.685455 
	C390.931488,185.865829 397.894684,188.183411 404.715363,190.840469 
	C407.767975,192.029633 409.670685,191.600357 411.510925,188.994156 
	C415.930756,182.734863 420.504120,176.584183 424.964172,170.352936 
	C425.703064,169.320587 426.739044,168.277985 426.021790,166.475845 
	C420.590546,163.585922 414.483582,161.959106 407.669922,159.909393 
M262.450806,182.073181 
	C262.950775,182.738403 263.455109,183.400421 263.950073,184.069366 
	C270.003143,192.249710 269.980499,192.187286 279.505341,188.803940 
	C285.730957,186.592499 292.032623,184.595154 298.851044,182.317947 
	C296.096252,174.041214 293.459869,166.194656 290.880371,158.329437 
	C289.991058,155.617737 287.872284,155.997635 285.954529,156.417953 
	C281.570831,157.378693 277.147186,158.293304 272.899109,159.705887 
	C266.057526,161.980865 258.848999,163.362488 251.891037,167.176361 
	C255.533676,172.324722 258.779724,176.912552 262.450806,182.073181 
M255.572861,416.985779 
	C254.509628,418.605957 252.603790,419.754761 252.701797,421.998993 
	C252.910522,422.324829 253.021027,422.731110 253.270645,422.853455 
	C264.126740,428.173309 275.985413,430.260895 287.510681,433.421906 
	C288.713867,433.751892 289.985382,433.489471 290.444672,432.179047 
	C293.329498,423.947693 296.475189,415.787537 298.448822,407.002777 
	C289.225128,404.302765 280.655792,401.642029 272.440094,398.030396 
	C270.080139,396.992981 269.094452,398.287415 267.981201,399.829926 
	C263.990112,405.360046 259.987366,410.881775 255.572861,416.985779 
M388.417542,431.885437 
	C389.213074,433.717438 390.624054,433.508392 392.197845,433.130920 
	C402.886292,430.567322 413.571381,427.996216 423.829681,423.956451 
	C424.891205,423.538391 426.076416,423.169617 426.408386,421.035736 
	C421.353790,414.052673 416.011841,406.642761 410.628082,399.263306 
	C409.694550,397.983765 408.519409,397.178986 406.764709,397.928802 
	C398.382782,401.510864 389.765320,404.459167 380.340607,406.899292 
	C383.093719,415.427094 385.636597,423.303741 388.417542,431.885437 
M260.677856,347.154419 
	C269.973236,340.421692 279.193207,333.580811 288.606445,327.017120 
	C291.739014,324.832886 291.872467,322.777985 290.472504,319.475983 
	C288.464813,314.740631 285.244904,316.392273 282.182220,317.374176 
	C266.984650,322.246521 251.817459,327.213837 236.649017,332.176544 
	C235.278076,332.625092 233.688156,332.749695 232.495956,334.678680 
	C236.360733,339.008057 240.232788,343.468445 244.843262,347.259521 
	C252.185745,353.297028 252.175827,353.309082 260.677856,347.154419 
M435.925842,243.566360 
	C434.540741,242.374680 432.961273,241.345032 431.807465,239.960602 
	C428.499237,235.991257 425.493500,236.690079 421.700165,239.576141 
	C412.039795,246.925919 402.106934,253.917831 392.275024,261.041748 
	C385.924896,265.642853 385.830566,266.433197 391.254059,273.589111 
	C409.578979,267.646667 428.061066,261.653259 446.543182,255.659851 
	C446.707458,255.040894 446.871735,254.421921 447.036011,253.802963 
	C443.496826,250.561584 439.957611,247.320206 435.925842,243.566360 
M261.310913,265.071472 
	C269.074310,267.587494 276.869843,270.010345 284.583862,272.669617 
	C287.308136,273.608734 288.914551,273.216705 290.058838,270.429108 
	C291.135895,267.805450 292.979980,265.505524 289.553986,263.070587 
	C278.012482,254.867676 266.583038,246.507202 255.090942,238.234482 
	C253.791031,237.298721 252.470245,235.844360 250.666138,237.271820 
	C244.056351,242.501770 237.786545,248.077301 231.790421,255.417923 
	C241.988525,258.752472 251.273514,261.788422 261.310913,265.071472 
M431.767944,328.792755 
	C419.418304,324.794830 407.048157,320.858398 394.732391,316.758667 
	C391.363464,315.637238 389.889862,317.181091 388.536774,319.897797 
	C387.282928,322.415192 386.802490,324.350769 389.557190,326.311188 
	C401.089386,334.518127 412.515717,342.873718 424.000702,351.147308 
	C425.187653,352.002350 426.516022,353.220245 428.051666,352.060730 
	C434.903503,346.887115 441.184174,341.126587 446.990265,333.824768 
	C441.617279,332.055420 437.068146,330.557343 431.767944,328.792755 
M359.530762,178.879486 
	C362.655518,179.310394 365.824982,179.543213 368.890900,180.234940 
	C371.339020,180.787292 372.686127,180.141876 373.433380,177.796692 
	C375.550293,171.152954 377.654846,164.503876 379.899414,157.902832 
	C380.933868,154.860519 379.883026,153.685013 376.858673,153.267044 
	C367.307800,151.947113 357.729584,151.140961 348.086853,150.944153 
	C344.714783,150.875320 343.235077,152.045456 343.331238,155.554779 
	C343.494995,161.530304 343.483612,167.517090 343.315613,173.492691 
	C343.223572,176.767075 344.569733,177.848083 347.729889,177.884232 
	C351.368591,177.925827 355.001465,178.474731 359.530762,178.879486 
M323.571838,151.247391 
	C315.242767,151.954697 306.810791,152.014053 298.310516,154.725830 
	C300.273071,160.967758 302.052246,166.652786 303.850739,172.331711 
	C304.453156,174.233810 305.150299,176.106689 305.721985,178.017532 
	C306.385040,180.233856 307.740601,180.591537 309.920776,180.221542 
	C317.134552,178.997330 324.396637,178.024216 331.721588,177.856918 
	C334.753571,177.787689 335.843536,176.483154 335.746826,173.570023 
	C335.619934,169.747116 335.727783,165.916748 335.716461,162.089630 
	C335.683594,150.971634 335.680023,150.971649 323.571838,151.247391 
M350.651947,411.300995 
	C343.395966,411.545380 343.393707,411.545380 343.380493,418.977356 
	C343.371613,423.973267 343.563599,428.979248 343.303711,433.961853 
	C343.100311,437.860748 344.852753,439.014313 348.368774,438.699615 
	C355.330017,438.076508 362.294708,437.489441 369.262238,436.941254 
	C373.039490,436.644073 376.837097,436.507019 380.702911,434.380524 
	C378.231201,426.647949 375.826874,419.068909 373.380066,411.503632 
	C372.554108,408.949890 370.572235,409.229248 368.463867,409.482574 
	C362.847198,410.157410 357.212769,410.684570 350.651947,411.300995 
M335.730560,424.508118 
	C335.726501,421.678589 335.619781,418.844421 335.747070,416.020813 
	C335.875946,413.162231 334.788757,411.557678 331.816406,411.509155 
	C324.311829,411.386566 316.884949,410.511871 309.502777,409.209229 
	C308.136932,408.968231 306.764679,408.732422 306.195465,410.453674 
	C303.512634,418.566406 300.857025,426.688110 298.082031,435.140686 
	C308.379272,436.879120 317.775024,437.783234 327.210846,438.460388 
	C335.713959,439.070587 335.704224,439.202423 335.717957,430.486420 
	C335.720612,428.821991 335.726257,427.157593 335.730560,424.508118 
M289.801239,356.341675 
	C293.924896,350.723114 298.000793,345.068634 302.189087,339.498718 
	C304.963470,335.809082 301.051025,334.711639 299.664154,332.664520 
	C298.262939,330.596191 296.701233,330.636139 294.657318,332.138763 
	C283.962769,340.001068 273.163910,347.721375 262.442810,355.547913 
	C261.454285,356.269592 260.033539,356.808838 260.040375,358.896484 
	C263.089050,360.763977 266.190338,363.013214 269.579071,364.677032 
	C282.077484,370.813599 278.342438,371.705902 286.784485,360.572449 
	C287.686584,359.382812 288.520935,358.141785 289.801239,356.341675 
M264.388153,227.835480 
	C262.838684,228.933289 260.632965,229.286392 259.960968,231.946472 
	C271.304199,240.167557 282.789795,248.323898 294.058105,256.770172 
	C297.081390,259.036285 298.612610,257.744507 300.726746,255.733139 
	C302.914032,253.652145 304.091980,252.016510 301.767120,249.095306 
	C297.532074,243.773926 293.573303,238.224503 289.657837,232.658661 
	C279.729248,218.545197 279.764404,218.520477 264.388153,227.835480 
M385.850861,351.672516 
	C389.588379,356.767059 393.327942,361.860107 397.062042,366.957153 
	C398.061646,368.321625 399.012848,369.847321 401.076630,368.827637 
	C407.286346,365.759552 413.759277,363.128479 418.931610,358.550751 
	C418.869995,358.081635 418.911133,357.843689 418.818329,357.766205 
	C407.582275,348.382141 395.335388,340.360382 383.582703,331.672119 
	C380.643280,329.499176 379.579773,332.770844 377.975861,334.070923 
	C376.466278,335.294617 374.767059,336.614838 376.596252,339.013123 
	C379.620697,342.978577 382.486877,347.064758 385.850861,351.672516 
M402.424622,243.898407 
	C407.863281,239.640518 414.054291,236.348755 419.235138,231.217392 
	C414.194061,226.984421 408.552979,224.515747 403.249847,221.492752 
	C400.184479,219.745392 398.219452,220.493027 396.201508,223.364594 
	C390.083099,232.071136 383.825134,240.687607 377.348785,249.129929 
	C375.289825,251.813950 375.813538,253.367233 378.023956,255.356781 
	C380.152252,257.272461 381.708679,259.507172 385.033539,256.828308 
	C390.469055,252.448822 396.240875,248.486710 402.424622,243.898407 
M317.948608,240.972275 
	C315.040009,231.953598 312.148712,222.929260 309.205780,213.921814 
	C308.714905,212.419418 308.501343,210.163589 306.211914,210.676651 
	C300.149231,212.035278 293.913025,213.011963 288.634552,216.418213 
	C288.798248,218.622238 290.021118,219.843231 290.974854,221.164978 
	C296.424042,228.716736 301.891357,236.255890 307.424652,243.746017 
	C308.441284,245.122208 309.172302,247.832733 311.257416,246.962143 
	C313.886078,245.864655 317.699036,245.742935 317.948608,240.972275 
M317.800964,348.722260 
	C319.440369,344.257935 315.184601,344.605072 313.195984,343.178436 
	C311.145752,341.707611 309.568878,342.490479 308.173279,344.444672 
	C301.882324,353.253326 295.513519,362.006378 289.179993,370.784668 
	C288.678711,371.479431 288.358063,372.232788 288.974091,373.344391 
	C293.428436,375.492859 298.427795,376.708374 303.360535,378.183289 
	C306.987183,379.267670 308.525146,377.970367 309.542969,374.648499 
	C312.128510,366.210358 314.919495,357.835144 317.800964,348.722260 
M368.397003,218.852448 
	C366.058258,225.965530 363.810303,233.110275 361.346283,240.179688 
	C359.895447,244.342300 363.308258,244.744339 365.530701,246.188751 
	C367.788757,247.656296 369.298218,247.284302 370.866699,244.952866 
	C373.931061,240.397827 377.356140,236.087082 380.567627,231.628906 
	C384.039612,226.809158 387.438171,221.936523 391.167999,216.663910 
	C386.038025,213.759109 380.943573,212.930405 376.127106,211.311676 
	C372.090271,209.954956 370.215057,211.348602 369.520081,215.241837 
	C369.345978,216.217163 368.944153,217.151871 368.397003,218.852448 
M366.845032,365.723267 
	C367.931763,369.037292 369.041016,372.344208 370.094879,375.668640 
	C370.562897,377.144958 371.033539,378.837494 372.939209,378.515594 
	C379.097198,377.475555 385.084290,375.844360 391.203278,372.610596 
	C384.356781,363.118500 377.766418,354.184845 371.428955,345.075256 
	C369.443665,342.221527 367.558868,342.182648 364.746979,343.592957 
	C361.741760,345.100189 360.497223,346.899384 361.746521,350.312439 
	C363.514801,355.143524 364.971771,360.088531 366.845032,365.723267 
M345.916626,349.342316 
	C343.176422,349.857666 343.368835,351.982452 343.367462,353.995758 
	C343.364075,358.977631 343.358856,363.959534 343.365448,368.941406 
	C343.384430,383.299957 343.386536,383.299774 357.735016,381.681458 
	C358.065002,381.644226 358.398254,381.634308 358.727417,381.591614 
	C361.744659,381.200073 363.199921,380.025909 362.021149,376.604095 
	C359.480988,369.230255 356.862823,361.850769 354.960754,354.301239 
	C353.714508,349.354828 351.602905,347.403412 345.916626,349.342316 
M343.345642,225.492294 
	C343.346313,229.147903 343.419159,232.805344 343.327148,236.458618 
	C343.237366,240.023361 345.900635,239.670822 348.124542,240.056015 
	C350.376862,240.446136 352.781616,241.541489 353.851135,238.192520 
	C356.629700,229.491974 359.452362,220.805496 362.262970,212.115204 
	C362.942200,210.014999 362.669159,208.569168 360.063965,208.247879 
	C355.781647,207.719772 351.527252,207.077744 347.181458,207.128723 
	C344.387726,207.161499 343.296417,208.334213 343.337372,211.036285 
	C343.405334,215.521851 343.343384,220.009354 343.345642,225.492294 
M335.214020,350.567871 
	C328.131042,347.009186 326.377106,347.689697 324.158539,354.819519 
	C323.713684,356.249115 323.154633,357.642975 322.702148,359.070435 
	C320.510620,365.984558 318.337494,372.904510 316.089264,380.040039 
	C322.146118,382.436676 327.899811,381.830841 333.448395,382.460114 
	C335.773895,382.723846 335.710602,380.472107 335.704102,378.809631 
	C335.668274,369.652588 335.595703,360.495667 335.214020,350.567871 
M333.031891,207.225952 
	C327.461151,207.218246 321.903015,207.298737 315.902435,209.311005 
	C319.182312,219.343536 322.200745,228.971329 325.507507,238.499069 
	C326.853882,242.378326 330.063477,239.707245 332.428040,239.825180 
	C335.030823,239.955002 335.767853,238.311600 335.752899,235.953812 
	C335.700226,227.650314 335.735809,219.346283 335.721130,211.042496 
	C335.718445,209.530045 335.697021,207.987534 333.031891,207.225952 
z"/>
<path fill="#000000" opacity="1.000000" stroke="none" 
	d="
M297.861877,303.781555 
	C291.841461,276.066223 312.076294,255.210129 331.419128,253.587982 
	C325.969879,268.809937 327.813416,282.649963 341.200928,292.304291 
	C354.717987,302.052002 368.179840,298.811340 381.562836,288.066254 
	C383.178589,300.501495 380.136383,310.501770 373.457245,319.349915 
	C362.981171,333.227966 348.681244,339.088470 331.743164,335.766479 
	C314.355835,332.356384 302.664215,321.726227 297.861877,303.781555 
z"/>
<path fill="#000000" opacity="1.000000" stroke="none" 
	d="
M359.050232,285.848694 
	C358.120667,287.366669 356.642548,288.771881 356.059052,286.784637 
	C353.838348,279.221649 348.346161,275.236786 340.883789,272.140594 
	C348.919708,269.171570 354.452301,264.249939 357.211853,255.774933 
	C360.408051,263.705231 365.019867,269.357483 373.429810,271.618317 
	C367.691559,275.787842 360.730194,277.967773 359.050232,285.848694 
z"/>
</svg>