<svg width="112" height="95" viewBox="0 0 112 95" fill="none" xmlns="http://www.w3.org/2000/svg">
<g clip-path="url(#clip0_42_31)">
<path d="M28.897 0.517962C33.8002 7.3866 38.6731 14.1956 43.5117 21.0289C43.9758 21.6844 44.379 21.7951 45.1017 21.5C46.9223 20.7566 48.8139 20.2196 50.7284 19.768C51.0248 19.6981 51.3346 19.6625 51.6529 19.3428C51.2303 17.9995 50.7973 16.6026 50.3514 15.2099C49.3234 11.9985 48.2966 8.78678 47.2504 5.58136C47.0681 5.02276 46.9629 4.58173 47.7059 4.37511C48.4656 4.16383 48.508 4.74516 48.651 5.18618C50.0776 9.58653 51.5054 13.9866 52.8995 18.3973C53.1058 19.05 53.3801 19.265 54.0827 19.1458C55.8069 18.8532 57.5442 18.6434 59.3002 18.6227C60.5753 18.6077 60.5738 18.5862 60.5738 17.2701C60.5736 10.7078 60.5741 4.14539 60.5747 -2.41696C60.5748 -2.69294 60.588 -2.96922 60.5788 -3.24482C60.5607 -3.79067 60.814 -4.00728 61.3611 -3.99981C61.9442 -3.99185 61.9835 -3.62992 61.9832 -3.20145C61.9815 -0.779377 61.9807 1.64269 61.9802 4.06476C61.9793 8.60205 61.9932 13.1394 61.9628 17.6765C61.9582 18.3589 62.1712 18.6015 62.8392 18.6088C64.8068 18.6303 66.7622 18.8292 68.7014 19.1562C69.2767 19.2532 69.4608 18.9711 69.6076 18.5099C70.7595 14.8889 71.9217 11.2711 73.0817 7.65266C73.3714 6.7487 73.6746 5.84889 73.9522 4.94123C74.1021 4.4511 74.3356 4.21814 74.8934 4.3903C75.5059 4.57933 75.5151 4.9322 75.3467 5.45148C73.9757 9.67779 72.6199 13.909 71.2604 18.139C71.1303 18.5435 71.0061 18.9499 70.8486 19.4533C72.1902 19.8386 73.4769 20.192 74.7531 20.5799C75.7213 20.8743 76.6881 21.1813 77.6319 21.544C78.1449 21.7411 78.4681 21.6868 78.7959 21.2219C81.4641 17.437 84.1459 13.6617 86.833 9.89023C89.1997 6.56841 91.5773 3.25432 93.9537 -0.0606151C94.2312 -0.447802 94.4987 -0.805272 95.0684 -0.400349C95.6495 0.0127091 95.4645 0.375968 95.1427 0.826221C91.5408 5.86645 87.9466 10.9122 84.3525 15.958C83.0002 17.8565 81.6521 19.7581 80.3058 21.6609C80.1677 21.8561 80.0554 22.0695 79.9086 22.3115C80.7828 23.0238 81.8165 23.3626 82.7514 23.861C87.462 26.3725 91.6102 29.5819 95.0992 33.6221C95.5895 34.1899 96.0428 34.3238 96.7687 34.0651C101.393 32.4166 106.035 30.8157 110.668 29.1905C111.193 29.0064 111.647 28.8165 111.918 29.5641C112.193 30.3232 111.701 30.457 111.183 30.6345C106.859 32.1171 102.535 33.6037 98.2117 35.0907C97.8117 35.2283 97.3911 35.3268 97.0788 35.5832C97.0254 35.9216 97.2337 36.0856 97.3763 36.2759C99.6284 39.2809 101.547 42.4814 103.098 45.9035C103.321 46.3953 103.321 46.7876 103.1 47.2859C101.61 50.6365 99.7387 53.7576 97.5404 56.6886C97.3417 56.9536 97.0841 57.1906 97.0349 57.629C97.9894 58.2817 99.1485 58.503 100.227 58.8874C103.869 60.1854 107.532 61.4242 111.184 62.6933C111.629 62.848 112.194 62.9089 111.934 63.6654C111.681 64.4022 111.241 64.2494 110.699 64.059C106.065 62.4328 101.422 60.8361 96.7945 59.1934C96.0894 58.9431 95.6449 59.0133 95.1264 59.5974C91.0832 64.1516 86.2894 67.7195 80.7842 70.3341C80.482 70.4776 80.1641 70.6069 79.9116 70.929C80.0868 71.498 80.5039 71.9524 80.8493 72.4377C85.4908 78.9603 90.1427 85.4755 94.7916 91.9928C94.934 92.1925 95.0563 92.4085 95.2142 92.5949C95.6018 93.0526 95.7639 93.4451 95.1334 93.8727C94.4756 94.3186 94.2444 93.7973 93.9746 93.4234C92.862 91.8814 91.7767 90.3198 90.6736 88.7709C86.7952 83.3254 82.9041 77.8888 79.0449 72.4298C78.5514 71.7317 78.1365 71.4776 77.2441 71.8297C75.4194 72.5496 73.5291 73.1128 71.5968 73.4834C70.8438 73.6278 70.7462 73.9244 70.973 74.6134C72.3716 78.8629 73.736 83.1238 75.0974 87.3854C75.2324 87.8081 75.5491 88.2437 75.3005 88.7003C75.1284 89.0165 74.7463 89.097 74.4066 89.0684C73.9739 89.0319 73.9517 88.6153 73.8532 88.3109C72.7971 85.0463 71.7516 81.7784 70.7031 78.5114C70.3005 77.2569 69.8811 76.0073 69.5026 74.7455C69.3439 74.2162 69.0987 73.9991 68.5106 74.0954C66.5719 74.4127 64.6199 74.6296 62.6532 74.6706C61.9644 74.6849 61.9811 75.1487 61.9815 75.6277C61.9836 78.663 61.9812 81.6982 61.9844 84.7335C61.9901 90.1589 61.995 95.5843 62.0117 101.01C62.0133 101.552 61.9863 102.005 61.2722 102C60.5322 101.995 60.5663 101.488 60.5665 100.978C60.57 92.668 60.5713 84.3577 60.5706 76.0475C60.5705 74.8378 60.7441 74.69 59.3399 74.6056C57.5057 74.4953 55.6761 74.2716 53.8527 74.0343C53.199 73.9492 53.0718 74.3022 52.9216 74.7713C51.5019 79.2066 50.0787 83.6408 48.6382 88.0693C48.5153 88.4472 48.5394 88.9854 47.9844 89.0783C47.3001 89.1927 46.925 88.6431 47.1648 87.8989C48.5281 83.6691 49.8968 79.4409 51.256 75.2098C51.4041 74.7488 51.6141 74.2978 51.6013 73.6887C50.7684 73.4739 49.9122 73.2806 49.073 73.0304C47.7802 72.6451 46.4715 72.289 45.223 71.7877C44.4637 71.4828 44.0653 71.6532 43.6258 72.2746C40.7213 76.3804 37.7884 80.4661 34.8691 84.5616C32.751 87.5331 30.6382 90.5084 28.5268 93.4847C28.2194 93.918 27.9477 94.2635 27.3481 93.8238C26.7496 93.3849 27.0127 93.0383 27.3214 92.6068C30.462 88.216 33.5943 83.8192 36.7269 79.4227C38.5598 76.8503 40.391 74.2767 42.2165 71.699C42.389 71.4554 42.6383 71.2432 42.642 70.9048C42.5084 70.5797 42.1916 70.5041 41.9198 70.3787C36.2629 67.7679 31.3906 64.1073 27.2875 59.4317C26.8313 58.9119 26.4211 58.7904 25.7764 59.0186C21.0036 60.7079 16.2225 62.3737 11.4409 64.038C11.0087 64.1884 10.5326 64.5535 10.1669 63.8925C9.7848 63.2015 10.1005 62.9233 10.7473 62.7034C14.3498 61.4782 17.9442 60.2295 21.539 58.9819C22.8407 58.5301 24.1357 58.0593 25.3966 57.6104C25.5178 57.2475 25.2742 57.0965 25.1374 56.9115C22.9244 53.9176 21.0028 50.7542 19.4729 47.3547C19.2224 46.7982 19.2339 46.3436 19.4891 45.7939C21.1222 42.2765 23.0948 38.9659 25.5122 35.8402C25.0672 35.4388 24.5192 35.3341 24.0165 35.1609C19.6356 33.6522 15.2509 32.1544 10.8666 30.6554C10.3266 30.4708 9.77779 30.3397 10.0919 29.5293C10.3887 28.7635 10.8858 29.0406 11.3698 29.2086C16.0955 30.849 20.8266 32.4747 25.5368 34.1583C26.3598 34.4525 26.8259 34.321 27.409 33.6619C31.3578 29.1988 35.9957 25.6269 41.4105 23.0875C41.817 22.8969 42.28 22.7751 42.6375 22.2824C41.5207 20.7112 40.3914 19.1181 39.2578 17.5281C35.2873 11.9591 31.3162 6.39045 27.3419 0.824134C27.0416 0.403502 26.7415 0.0476665 27.3796 -0.384133C28.01 -0.81077 28.2527 -0.405682 28.5387 0.0149574C28.642 0.166933 28.7509 0.315132 28.897 0.517962ZM66.7196 27.0607C66.567 27.0449 66.4131 27.037 66.262 27.0122C60.7139 26.1031 55.3198 26.6558 50.0864 28.7164C44.8681 30.771 40.6194 34.0871 37.2704 38.5667C36.9508 38.9942 36.6899 39.4083 36.0113 39.1692C34.594 38.6699 33.1556 38.2301 31.7238 37.7723C31.2792 37.6302 30.9019 37.4835 31.1398 36.879C31.3504 36.3436 31.655 36.1983 32.2115 36.3998C33.2492 36.7755 34.3212 37.0586 35.3512 37.4527C35.9702 37.6895 36.3714 37.5918 36.7704 37.0589C37.7647 35.7307 38.9041 34.5279 40.1106 33.3882C40.3254 33.1853 40.6114 33.015 40.6105 32.5578C39.0505 31.4154 37.432 30.2607 35.8515 29.0565C35.276 28.618 34.8485 28.6875 34.3053 29.1049C28.7757 33.3554 24.5851 38.6778 21.5433 44.9255C21.4175 45.184 21.1762 45.4403 21.4141 45.8374C21.6783 45.8504 21.9797 45.8779 22.281 45.8781C26.395 45.8808 30.5092 45.8608 34.6229 45.8964C35.3935 45.9031 35.7435 45.6108 36.0714 44.9401C40.8491 35.1657 48.7967 29.9465 59.5474 29.0189C64.4403 28.5967 69.144 29.6814 73.5507 31.8623C79.1073 34.6124 83.2295 38.8238 85.9205 44.3899C86.457 45.4996 87.0521 45.949 88.3346 45.9162C92.2312 45.8168 96.1319 45.883 100.031 45.8741C100.415 45.8732 100.826 45.9789 101.19 45.7226C101.19 45.623 101.22 45.5197 101.185 45.4496C100.621 44.3278 100.086 43.1902 99.4734 42.0952C96.6236 36.9978 92.8801 32.6645 88.2694 29.0709C87.7254 28.6469 87.3214 28.5865 86.7518 29.0235C85.3162 30.1246 83.8346 31.1658 82.3771 32.2385C82.1889 32.3771 81.9375 32.4845 81.9396 32.9202C83.3864 34.2403 84.7911 35.733 86.0454 37.3599C86.3111 37.7045 86.6246 37.5958 86.9591 37.4864C88.096 37.1144 89.2433 36.7734 90.3749 36.3863C90.9438 36.1916 91.2347 36.3862 91.4216 36.9178C91.6143 37.4662 91.2934 37.6211 90.8709 37.7564C89.4394 38.2149 88.0069 38.671 86.5852 39.1586C86.071 39.335 85.7416 39.2265 85.4017 38.7941C84.5877 37.7585 83.7739 36.7137 82.8651 35.7631C78.4702 31.1655 73.1321 28.2768 66.7196 27.0607ZM30.3027 60.6574C31.612 61.9082 32.9507 63.1238 34.3977 64.2185C34.861 64.5691 35.2394 64.5805 35.7127 64.2285C37.1899 63.1299 38.6925 62.0654 40.1837 60.9856C40.3783 60.8446 40.6133 60.7285 40.6077 60.3207C39.1514 58.9834 37.7398 57.4971 36.508 55.8505C36.226 55.4735 35.8802 55.5696 35.5131 55.6935C34.4374 56.0569 33.3529 56.3946 32.2813 56.7691C31.7882 56.9414 31.4074 57.0028 31.1905 56.3778C30.9672 55.7348 31.3582 55.5542 31.8286 55.4026C33.1427 54.979 34.4751 54.6048 35.7666 54.1216C36.4893 53.8512 36.8563 54.068 37.298 54.6393C44.3222 63.7225 53.6483 67.6454 64.987 66.3902C73.4121 65.4575 80.2343 61.4088 85.3053 54.556C85.6957 54.0284 86.0961 53.8946 86.7213 54.1144C88.0521 54.5824 89.4021 54.997 90.75 55.4151C91.2435 55.5683 91.6109 55.735 91.3756 56.3735C91.1503 56.9847 90.7579 56.9304 90.2691 56.7642C89.2233 56.4086 88.158 56.1077 87.123 55.7244C86.5303 55.5048 86.1422 55.6274 85.7957 56.1379C85.0687 57.2091 84.143 58.1095 83.2484 59.0377C82.7888 59.5146 82.2028 59.8864 81.9108 60.4735C82.0023 60.7874 82.2262 60.9111 82.4216 61.052C83.8403 62.0751 85.2803 63.0696 86.6766 64.1221C87.2688 64.5683 87.6874 64.5407 88.2822 64.081C93.368 60.1501 97.3598 55.3182 100.308 49.6244C100.663 48.9396 101.169 48.297 101.264 47.3932C100.778 47.3932 100.352 47.3938 99.9272 47.3931C95.9353 47.3861 91.9429 47.4102 87.9519 47.3478C87.0463 47.3336 86.5678 47.5984 86.1941 48.4227C84.6686 51.7872 82.5408 54.7368 79.75 57.1688C72.0012 63.9211 63.0875 65.8057 53.2889 63.0058C45.4385 60.7626 39.7444 55.7663 36.212 48.389C35.8308 47.5928 35.3882 47.2529 34.4737 47.27C30.3308 47.3474 26.1865 47.3504 22.0428 47.3883C21.7826 47.3907 21.4878 47.2989 21.2131 47.6035C23.4441 52.4411 26.3885 56.8038 30.3027 60.6574ZM67.1703 52.9273C69.8449 50.3188 70.5541 47.1939 69.5135 43.6682C68.5643 40.4524 65.4572 38.1904 62.0939 38.0347C58.947 37.8891 56.2569 38.792 54.2893 41.3069C51.6655 44.6606 52.1067 49.9811 55.158 52.8081C58.6466 56.0403 63.5831 56.1268 67.1703 52.9273ZM51.2504 48.9941C51.3117 47.3572 51.2566 47.2928 49.7269 47.2923C46.4755 47.2911 43.224 47.2816 39.9727 47.3016C39.1041 47.307 38.2243 47.2445 37.3023 47.431C37.9948 49.1918 38.9857 50.6944 40.0383 52.1614C40.263 52.4747 40.5568 52.5487 40.9284 52.427C44.3355 51.3112 47.7449 50.2022 51.2504 48.9941ZM48.3679 45.8789C48.9502 45.8793 49.538 45.829 50.1133 45.8923C50.9124 45.9803 51.1464 45.6105 51.2928 44.8848C51.4517 44.0972 50.9606 44.0046 50.4662 43.8454C47.3472 42.8412 44.2211 41.8582 41.1103 40.8293C40.5258 40.6359 40.2039 40.8001 39.8772 41.2548C38.9817 42.5013 38.2097 43.8193 37.5174 45.1855C37.4252 45.3674 37.2943 45.5643 37.5088 45.8789C41.0248 45.8789 44.6045 45.8789 48.3679 45.8789ZM84.8264 45.1857C84.1734 43.8339 83.5285 42.4801 82.6464 41.2517C82.314 40.7887 81.9985 40.6408 81.4168 40.8333C78.2738 41.873 75.1193 42.8787 71.9606 43.8702C71.3384 44.0654 71.1827 44.3542 71.294 45.012C71.4022 45.6515 71.5951 45.9024 72.2697 45.8926C74.6317 45.8585 76.9945 45.8796 79.357 45.8795C81.0138 45.8793 82.6707 45.8826 84.3275 45.8752C84.6873 45.8736 85.1585 45.9402 84.8264 45.1857ZM76.7568 47.3794C75.2276 47.3504 73.6982 47.3289 72.1693 47.2882C71.6479 47.2743 71.35 47.457 71.3455 48.0132C71.3418 48.482 70.9645 49.0112 71.7792 49.2648C75.0507 50.2833 78.3074 51.349 81.5683 52.4013C81.8789 52.5016 82.1717 52.5551 82.3986 52.253C83.4981 50.7888 84.4301 49.233 85.1276 47.3795C82.31 47.3795 79.6241 47.3795 76.7568 47.3794ZM78.4489 30.2343C78.8946 30.5581 79.365 30.8536 79.7797 31.213C80.2819 31.6483 80.7008 31.6386 81.2262 31.2216C82.0402 30.5754 82.9254 30.0196 83.7551 29.392C84.5233 28.811 85.3828 28.341 86.1179 27.5908C83.9697 26.0734 81.7662 24.8378 79.4212 23.8479C78.975 23.6595 78.7334 23.8841 78.5018 24.2022C77.9615 24.9441 77.4041 25.674 76.8789 26.4263C76.4176 27.087 75.8345 27.6756 75.541 28.4524C76.5139 29.0467 77.4258 29.6037 78.4489 30.2343ZM44.5879 68.2907C45.2773 67.353 45.9586 66.4091 46.6598 65.4802C46.9788 65.0574 47.0191 64.728 46.4935 64.4427C45.0634 63.6666 43.6927 62.7965 42.4005 61.8061C42.1218 61.5925 41.8516 61.5909 41.5608 61.8043C39.9551 62.9824 38.3426 64.1516 36.7392 65.3328C36.6578 65.3928 36.6379 65.5361 36.5699 65.6827C38.3762 67.0254 40.3318 68.0364 42.3249 68.9809C43.6452 69.6066 43.649 69.5987 44.5879 68.2907ZM45.6983 29.2666C46.138 28.9997 46.6393 28.8246 47.0746 28.3341C46.0146 26.8917 44.9548 25.4393 43.8818 23.9967C43.6108 23.6324 43.2774 23.824 42.9697 23.964C40.956 24.8803 39.0249 25.9497 37.1487 27.1186C36.9267 27.2569 36.6428 27.3693 36.6234 27.8139C38.2877 29.0178 39.9986 30.2502 41.7022 31.4927C42.034 31.7347 42.2563 31.5509 42.5202 31.3727C43.5362 30.6862 44.5625 30.0147 45.6983 29.2666ZM79.4948 62.298C78.3964 63.0277 77.3222 63.7975 76.1375 64.3871C75.5968 64.6562 75.5115 64.969 75.8883 65.4664C76.7586 66.6148 77.6111 67.7775 78.4402 68.9558C78.7735 69.4295 79.1139 69.4623 79.6127 69.2323C81.5651 68.3322 83.4921 67.3886 85.2734 66.1752C85.5186 66.0082 85.8333 65.9039 85.9243 65.5737C85.8548 65.2537 85.5706 65.1542 85.3562 64.9962C84.0969 64.0682 82.7931 63.1955 81.5823 62.2087C80.8515 61.613 80.26 61.5508 79.4948 62.298ZM73.8302 21.8084C72.9071 21.5827 71.9808 21.3686 71.062 21.1264C70.5742 20.9978 70.3335 21.1589 70.1866 21.6385C69.8099 22.8687 69.3959 24.0876 68.9891 25.3084C68.8334 25.7757 68.9504 26.0253 69.4575 26.1832C70.7458 26.5844 72.0289 27.0108 73.2858 27.4997C73.8483 27.7185 74.1989 27.6395 74.538 27.16C75.3524 26.0083 76.1952 24.8766 77.017 23.73C77.1532 23.5401 77.3441 23.3482 77.2119 23.0166C76.2111 22.4849 75.0857 22.1856 73.8302 21.8084ZM47.0706 25.8865C47.1627 26.0089 47.2557 26.1308 47.3469 26.2538C48.4623 27.759 48.4581 27.7475 50.2133 27.125C51.3604 26.7181 52.5217 26.3506 53.7781 25.9316C53.2705 24.4087 52.7847 22.9649 52.3093 21.5177C52.1455 21.0187 51.755 21.0887 51.4016 21.166C50.5939 21.3428 49.7787 21.5111 48.9959 21.771C47.7352 22.1896 46.4069 22.4438 45.1248 23.1455C45.796 24.0928 46.3941 24.937 47.0706 25.8865ZM45.8032 69.1104C45.6073 69.4085 45.2561 69.6199 45.2742 70.0328C45.3126 70.0928 45.333 70.1675 45.379 70.19C47.3794 71.1689 49.5646 71.553 51.6884 72.1346C51.9101 72.1953 52.1444 72.147 52.229 71.9059C52.7606 70.3914 53.3403 68.8899 53.704 67.2735C52.0043 66.7767 50.4252 66.2871 48.9113 65.6226C48.4765 65.4317 48.2948 65.6699 48.0897 65.9537C47.3543 66.9712 46.6167 67.9872 45.8032 69.1104ZM70.2825 71.8519C70.4291 72.189 70.6891 72.1505 70.9791 72.0811C72.9487 71.6094 74.9177 71.1363 76.808 70.393C77.0036 70.316 77.222 70.2482 77.2831 69.8556C76.3517 68.5707 75.3674 67.2073 74.3753 65.8494C74.2033 65.614 73.9867 65.4659 73.6634 65.6039C72.1188 66.263 70.5309 66.8055 68.7942 67.2545C69.3015 68.8236 69.7701 70.2729 70.2825 71.8519ZM46.7439 56.2614C48.4568 55.0226 50.1557 53.7639 51.8903 52.5562C52.4676 52.1543 52.4921 51.7762 52.2342 51.1686C51.8642 50.2973 51.2709 50.6012 50.7065 50.7819C47.9061 51.6784 45.1112 52.5924 42.3161 53.5055C42.0635 53.588 41.7705 53.611 41.5508 53.9659C42.263 54.7625 42.9765 55.5832 43.8261 56.2808C45.1791 57.3917 45.1772 57.3939 46.7439 56.2614ZM79.0369 37.2013C78.7817 36.982 78.4906 36.7925 78.278 36.5378C77.6684 35.8074 77.1145 35.936 76.4156 36.4671C74.6354 37.8194 72.8051 39.1059 70.9934 40.4167C69.8232 41.2633 69.8058 41.4088 70.8052 42.7254C74.182 41.632 77.5877 40.5292 80.9934 39.4265C81.0237 39.3126 81.0539 39.1987 81.0842 39.0848C80.432 38.4884 79.7799 37.892 79.0369 37.2013ZM46.8606 41.1582C48.2911 41.6211 49.7276 42.0669 51.1491 42.5563C51.6511 42.729 51.9471 42.6569 52.1579 42.144C52.3564 41.6612 52.6962 41.2381 52.0649 40.79C49.9382 39.2807 47.8321 37.7424 45.7144 36.2202C45.4749 36.048 45.2315 35.7804 44.899 36.0431C43.6811 37.0054 42.5257 38.0313 41.4208 39.3819C43.3 39.9955 45.011 40.5541 46.8606 41.1582ZM78.2707 52.8829C75.9951 52.1473 73.7156 51.423 71.4462 50.6686C70.8254 50.4623 70.5539 50.7463 70.3045 51.2462C70.0735 51.7094 69.9849 52.0656 70.4925 52.4263C72.6176 53.9364 74.7231 55.4738 76.8395 56.9961C77.0582 57.1534 77.303 57.3775 77.5859 57.1642C78.8485 56.2122 80.0059 55.1523 81.0758 53.8088C80.0857 53.4832 79.2474 53.2076 78.2707 52.8829ZM64.9596 25.2989C65.5354 25.3782 66.1194 25.421 66.6844 25.5483C67.1355 25.6499 67.3837 25.5312 67.5214 25.0997C67.9115 23.8772 68.2993 22.6538 68.7129 21.4392C68.9035 20.8794 68.7099 20.6631 68.1526 20.5862C66.3926 20.3434 64.6277 20.195 62.8508 20.1588C62.2294 20.1461 61.9568 20.3615 61.9745 21.0072C62.0047 22.1067 62.0026 23.2082 61.9716 24.3077C61.9546 24.9102 62.2027 25.1091 62.785 25.1158C63.4555 25.1234 64.125 25.2244 64.9596 25.2989ZM58.3334 20.2146C56.7986 20.3448 55.2448 20.3557 53.6785 20.8546C54.0401 22.0032 54.368 23.0492 54.6994 24.0941C54.8104 24.4441 54.9389 24.7887 55.0442 25.1403C55.1664 25.5481 55.4162 25.6139 55.8179 25.5458C57.1472 25.3206 58.4854 25.1415 59.8352 25.1108C60.3939 25.098 60.5947 24.858 60.5769 24.322C60.5535 23.6185 60.5734 22.9138 60.5713 22.2096C60.5652 20.1639 60.5646 20.1639 58.3334 20.2146ZM63.3235 68.0644C61.9864 68.1093 61.986 68.1093 61.9836 69.4768C61.9819 70.3961 62.0173 71.3172 61.9694 72.234C61.9319 72.9514 62.2548 73.1636 62.9027 73.1057C64.1855 72.9911 65.4689 72.883 66.7528 72.7822C67.4488 72.7275 68.1486 72.7023 68.861 72.311C68.4055 70.8882 67.9625 69.4937 67.5116 68.1017C67.3594 67.6318 66.9942 67.6832 66.6057 67.7298C65.5707 67.854 64.5324 67.951 63.3235 68.0644ZM60.5739 70.4945C60.5731 69.9738 60.5535 69.4524 60.5769 68.9328C60.6007 68.4068 60.4003 68.1116 59.8526 68.1027C58.4698 68.0801 57.1012 67.9192 55.7409 67.6795C55.4892 67.6351 55.2363 67.5918 55.1315 67.9085C54.6371 69.4012 54.1477 70.8956 53.6364 72.4509C55.5339 72.7707 57.2652 72.9371 59.004 73.0617C60.5708 73.174 60.569 73.1982 60.5716 71.5945C60.5721 71.2882 60.5731 70.982 60.5739 70.4945ZM52.1105 57.9519C52.8703 56.9181 53.6214 55.8776 54.3932 54.8528C54.9044 54.1739 54.1835 53.972 53.9279 53.5953C53.6697 53.2147 53.3819 53.2221 53.0053 53.4986C51.0346 54.9452 49.0447 56.3657 47.0691 57.8058C46.887 57.9386 46.6252 58.0378 46.6264 58.422C47.1882 58.7656 47.7597 59.1794 48.3841 59.4856C50.6872 60.6147 49.999 60.7789 51.5546 58.7303C51.7208 58.5114 51.8746 58.2831 52.1105 57.9519ZM47.4276 34.3068C47.1421 34.5088 46.7356 34.5738 46.6118 35.0632C48.702 36.5759 50.8185 38.0766 52.8949 39.6308C53.452 40.0477 53.7342 39.81 54.1237 39.4399C54.5268 39.057 54.7438 38.7561 54.3154 38.2186C53.535 37.2395 52.8056 36.2184 52.0841 35.1943C50.2545 32.5974 50.261 32.5928 47.4276 34.3068ZM69.8096 57.0928C70.4983 58.0302 71.1874 58.9673 71.8755 59.9051C72.0597 60.1562 72.2349 60.4369 72.6152 60.2493C73.7595 59.6848 74.9523 59.2006 75.9054 58.3583C75.894 58.272 75.9016 58.2282 75.8845 58.214C73.814 56.4873 71.5573 55.0113 69.3916 53.4127C68.85 53.0129 68.654 53.6149 68.3585 53.8541C68.0803 54.0792 67.7672 54.3221 68.1042 54.7634C68.6615 55.4931 69.1897 56.2449 69.8096 57.0928ZM72.8636 37.2624C73.8658 36.4789 75.0066 35.8732 75.9613 34.9291C75.0324 34.1502 73.9929 33.696 73.0157 33.1397C72.4508 32.8182 72.0887 32.9558 71.7169 33.4841C70.5895 35.0861 69.4363 36.6716 68.2429 38.225C67.8635 38.7188 67.96 39.0046 68.3673 39.3707C68.7595 39.7232 69.0463 40.1344 69.659 39.6415C70.6606 38.8356 71.7242 38.1066 72.8636 37.2624ZM57.2972 36.724C56.7612 35.0645 56.2285 33.404 55.6862 31.7467C55.5957 31.4702 55.5564 31.0552 55.1345 31.1496C54.0173 31.3996 52.8682 31.5793 51.8955 32.206C51.9257 32.6116 52.151 32.8362 52.3267 33.0794C53.3309 34.4689 54.3383 35.8561 55.358 37.2343C55.5453 37.4875 55.68 37.9863 56.0642 37.8261C56.5486 37.6241 57.2512 37.6018 57.2972 36.724ZM57.27 56.5499C57.5721 55.7285 56.7879 55.7924 56.4214 55.5299C56.0436 55.2592 55.7531 55.4033 55.4959 55.7628C54.3367 57.3836 53.1631 58.9942 51.996 60.6094C51.9036 60.7372 51.8445 60.8758 51.9581 61.0804C52.7789 61.4757 53.7001 61.6993 54.6091 61.9707C55.2773 62.1703 55.5607 61.9315 55.7483 61.3203C56.2247 59.7677 56.739 58.2267 57.27 56.5499ZM66.5934 32.6539C66.1624 33.9627 65.7482 35.2773 65.2941 36.5781C65.0268 37.344 65.6556 37.418 66.0652 37.6838C66.4813 37.9538 66.7594 37.8854 67.0484 37.4564C67.6131 36.6183 68.2443 35.8251 68.836 35.0048C69.4758 34.1179 70.1021 33.2214 70.7894 32.2512C69.8441 31.7167 68.9053 31.5643 68.0178 31.2664C67.2739 31.0168 66.9284 31.2732 66.8003 31.9896C66.7682 32.169 66.6942 32.341 66.5934 32.6539ZM66.3074 59.6781C66.5076 60.2879 66.712 60.8963 66.9062 61.508C66.9925 61.7797 67.0792 62.0911 67.4303 62.0319C68.5651 61.8405 69.6683 61.5404 70.7959 60.9454C69.5343 59.1988 68.3199 57.555 67.1521 55.8789C66.7862 55.3538 66.4389 55.3466 65.9208 55.6061C65.367 55.8834 65.1377 56.2145 65.3679 56.8425C65.6937 57.7314 65.9622 58.6413 66.3074 59.6781ZM62.4509 56.664C61.9459 56.7588 61.9814 57.1498 61.9812 57.5202C61.9805 58.4369 61.9796 59.3536 61.9808 60.2702C61.9843 62.9122 61.9847 62.9122 64.6287 62.6144C64.6895 62.6075 64.7509 62.6057 64.8115 62.5979C65.3675 62.5258 65.6357 62.3098 65.4185 61.6802C64.9504 60.3234 64.4679 58.9655 64.1175 57.5764C63.8878 56.6663 63.4987 56.3072 62.4509 56.664ZM61.9771 33.8756C61.9773 34.5483 61.9907 35.2212 61.9737 35.8934C61.9572 36.5494 62.4479 36.4845 62.8577 36.5554C63.2728 36.6271 63.7159 36.8287 63.913 36.2125C64.425 34.6116 64.9451 33.0133 65.463 31.4143C65.5882 31.0278 65.5379 30.7618 65.0578 30.7027C64.2687 30.6055 63.4848 30.4874 62.684 30.4968C62.1692 30.5028 61.9681 30.7186 61.9756 31.2157C61.9881 32.0411 61.9767 32.8668 61.9771 33.8756ZM60.4787 56.8895C59.1735 56.2347 58.8503 56.3599 58.4415 57.6718C58.3595 57.9348 58.2565 58.1913 58.1731 58.454C57.7693 59.7262 57.3689 60.9994 56.9546 62.3124C58.0707 62.7533 59.1309 62.6419 60.1534 62.7577C60.5819 62.8062 60.5702 62.3919 60.569 62.086C60.5624 60.4011 60.549 58.7162 60.4787 56.8895ZM60.0766 30.5146C59.0501 30.5132 58.0259 30.528 56.9202 30.8983C57.5245 32.7443 58.0807 34.5158 58.6901 36.2689C58.9382 36.9827 59.5296 36.4912 59.9653 36.5129C60.445 36.5368 60.5808 36.2344 60.578 35.8006C60.5683 34.2727 60.5749 32.7448 60.5722 31.2169C60.5717 30.9386 60.5677 30.6548 60.0766 30.5146Z" fill="white"/>
<path d="M54.1801 48.3381C53.1767 43.734 56.5491 40.2695 59.7729 40C58.8647 42.5286 59.172 44.8277 61.4032 46.4315C63.6561 48.0508 65.8997 47.5124 68.1302 45.7275C68.3995 47.7932 67.8925 49.4544 66.7793 50.9243C65.0333 53.2297 62.65 54.2032 59.827 53.6514C56.9291 53.0849 54.9805 51.319 54.1801 48.3381Z" fill="white"/>
<path d="M64.0277 44.9958C63.8728 45.248 63.6265 45.4814 63.5292 45.1513C63.1591 43.8949 62.2437 43.233 61 42.7186C62.3393 42.2254 63.2614 41.4079 63.7213 40C64.254 41.3174 65.0227 42.2563 66.4243 42.6319C65.468 43.3245 64.3077 43.6866 64.0277 44.9958Z" fill="white"/>
</g>
<defs>
<clipPath id="clip0_42_31">
<rect width="112" height="101" fill="white" transform="translate(0 -3)"/>
</clipPath>
</defs>
</svg>
